<?xml version="1.0" encoding="utf-8"?>
<!-- Generator: Adobe Illustrator 19.0.0, SVG Export Plug-In . SVG Version: 6.00 Build 0)  -->
<svg version="1.1" id="Layer_1" xmlns="http://www.w3.org/2000/svg" xmlns:xlink="http://www.w3.org/1999/xlink" x="0px" y="0px"
	 viewBox="-379 351 200 200" style="enable-background:new -379 351 200 200;" xml:space="preserve">
<style type="text/css">
	.st0{fill:#47BFAB;}
</style>
<g id="XMLID_4331_">
	<g id="XMLID_166_">
		<path id="XMLID_171_" class="st0" d="M-307.5,450.6h10.9c0.1-5.2,0.8-10.3,2.1-14.8h-7.1c-0.6,0-1.1-0.5-1.1-1c0-0.6,0.5-1,1.1-1
			h7.8c1.1-3.4,2.6-6.4,4.3-8.7c0.3-0.5,1-0.6,1.5-0.2c0.5,0.3,0.6,1,0.2,1.5c-1.5,2.1-2.8,4.6-3.8,7.5h11v-9.7c0-0.6,0.5-1,1.1-1
			s1.1,0.5,1.1,1v9.7h11c-1-2.9-2.3-5.5-3.8-7.5c-0.3-0.5-0.2-1.1,0.2-1.5c0.5-0.3,1.1-0.2,1.5,0.2c1.7,2.4,3.2,5.4,4.3,8.7h7.8
			c0.6,0,1.1,0.5,1.1,1c0,0.6-0.5,1-1.1,1h-7.1c1.3,4.5,2,9.5,2.1,14.8h10.9c0.6,0,1.1,0.5,1.1,1s-0.5,1-1.1,1h-10.9
			c-0.1,5.2-0.8,10.3-2.1,14.8h7.1c0.6,0,1.1,0.5,1.1,1c0,0.6-0.5,1-1.1,1h-7.8c-1.1,3.4-2.6,6.4-4.3,8.7c-0.2,0.3-0.5,0.4-0.9,0.4
			c-0.2,0-0.4-0.1-0.6-0.2c-0.5-0.3-0.6-1-0.2-1.5c1.5-2.1,2.8-4.6,3.8-7.5h-11v9.7c0,0.6-0.5,1-1.1,1s-1.1-0.5-1.1-1v-9.7h-11
			c1,2.9,2.3,5.5,3.8,7.5c0.3,0.5,0.2,1.1-0.2,1.5c-0.2,0.1-0.4,0.2-0.6,0.2c-0.3,0-0.7-0.2-0.9-0.4c-1.7-2.4-3.2-5.4-4.3-8.7h-7.8
			c-0.6,0-1.1-0.5-1.1-1c0-0.6,0.5-1,1.1-1h7.1c-1.3-4.5-2-9.5-2.1-14.8h-10.9c-0.6,0-1.1-0.5-1.1-1
			C-308.5,451.1-308.1,450.6-307.5,450.6L-307.5,450.6z M-292.3,435.8c-1.3,4.4-2.1,9.5-2.2,14.8h13.8v-14.8H-292.3z M-266.9,435.8
			h-11.7v14.8h13.8C-264.9,445.3-265.6,440.3-266.9,435.8L-266.9,435.8z M-266.9,467.4c1.3-4.4,2.1-9.5,2.2-14.8h-13.9v14.8H-266.9z
			 M-292.3,467.4h11.6v-14.8h-13.8C-294.4,458-293.7,463-292.3,467.4L-292.3,467.4z"/>
		<g id="XMLID_167_">
			<path id="XMLID_168_" class="st0" d="M-279,486.6c-19.6,0-35.6-16-35.6-35.6s16-35.6,35.6-35.6s35.6,16,35.6,35.6
				S-259.3,486.6-279,486.6z M-279,417.3c-18.5,0-33.6,15.1-33.6,33.7s15.1,33.6,33.6,33.6s33.6-15.1,33.6-33.6
				S-260.4,417.3-279,417.3z"/>
		</g>
	</g>
</g>
</svg>
