<?xml version="1.0" encoding="utf-8"?>
<!-- Generator: Adobe Illustrator 19.0.0, SVG Export Plug-In . SVG Version: 6.00 Build 0)  -->
<svg version="1.1" id="Layer_1" xmlns="http://www.w3.org/2000/svg" xmlns:xlink="http://www.w3.org/1999/xlink" x="0px" y="0px"
	 viewBox="-379 351 200 200" style="enable-background:new -379 351 200 200;" xml:space="preserve">
<style type="text/css">
	.st0{fill:#47BFAB;}
</style>
<g id="XMLID_789_">
	<path id="XMLID_4031_" class="st0" d="M-258,417.5h-46.2c-1.1,0-2,0.9-2,2v2.2h-2.2c-1.1,0-2,0.9-2,2v58.8c0,1.1,0.9,2,2,2h46.2
		c1.1,0,2-0.9,2-2v-2.2h2.2c1.1,0,2-0.9,2-2v-58.8C-256,418.4-256.9,417.5-258,417.5L-258,417.5z M-262.1,479.4L-262.1,479.4
		L-262.1,479.4v3.2c0,0,0,0.1-0.1,0.1h-46.2c0,0-0.1,0-0.1-0.1v-58.9c0,0,0-0.1,0.1-0.1h3.1l0,0l0,0h43c0,0,0.1,0,0.1,0.1v55.7
		H-262.1z M-257.9,478.3C-257.9,478.4-258,478.4-257.9,478.3l-2.2,0.1v-54.7c0-1.1-0.9-2-2-2h-42v-2.2c0,0,0-0.1,0.1-0.1h46
		c0,0,0.1,0,0.1,0.1V478.3z"/>
	<path id="XMLID_4028_" class="st0" d="M-268.6,431.2h-33.6c-0.5,0-1,0.4-1,1c0,0.5,0.4,1,1,1h33.6c0.5,0,1-0.4,1-1
		C-267.6,431.6-268,431.2-268.6,431.2L-268.6,431.2z"/>
	<path id="XMLID_4025_" class="st0" d="M-268.6,443.7h-33.6c-0.5,0-1,0.4-1,1c0,0.5,0.4,1,1,1h33.6c0.5,0,1-0.4,1-1
		C-267.6,444.2-268,443.7-268.6,443.7L-268.6,443.7z"/>
	<path id="XMLID_4022_" class="st0" d="M-268.6,473.1h-33.6c-0.5,0-1,0.4-1,1c0,0.5,0.4,1,1,1h33.6c0.5,0,1-0.4,1-1
		C-267.6,473.6-268,473.1-268.6,473.1L-268.6,473.1z"/>
	<path id="XMLID_4019_" class="st0" d="M-268.6,456.3h-33.6c-0.5,0-1,0.4-1,1c0,0.5,0.4,1,1,1h33.6c0.5,0,1-0.4,1-1
		C-267.6,456.8-268,456.3-268.6,456.3L-268.6,456.3z"/>
	<path id="XMLID_3997_" class="st0" d="M-302.2,437.3h8.4c0.5,0,1-0.4,1-1c0-0.5-0.4-1-1-1h-8.4c-0.5,0-1,0.4-1,1
		C-303.1,436.9-302.7,437.3-302.2,437.3L-302.2,437.3z"/>
	<path id="XMLID_3991_" class="st0" d="M-268.6,435.4h-21c-0.5,0-1,0.4-1,1c0,0.5,0.4,1,1,1h21c0.5,0,1-0.4,1-1
		S-268,435.4-268.6,435.4L-268.6,435.4z"/>
	<path id="XMLID_3988_" class="st0" d="M-302.2,441.5h25.2c0.5,0,1-0.4,1-1c0-0.5-0.4-1-1-1h-25.2c-0.5,0-1,0.4-1,1
		C-303.1,441.1-302.7,441.5-302.2,441.5L-302.2,441.5z"/>
	<path id="XMLID_3985_" class="st0" d="M-268.6,439.6h-4.2c-0.5,0-1,0.4-1,1c0,0.5,0.4,1,1,1h4.2c0.5,0,1-0.4,1-1
		S-268,439.6-268.6,439.6L-268.6,439.6z"/>
	<path id="XMLID_3982_" class="st0" d="M-268.6,468.9h-33.6c-0.5,0-1,0.4-1,1c0,0.5,0.4,1,1,1h33.6c0.5,0,1-0.4,1-1
		C-267.6,469.4-268,468.9-268.6,468.9L-268.6,468.9z"/>
	<path id="XMLID_3979_" class="st0" d="M-302.2,462.5h8.4c0.5,0,1-0.4,1-1c0-0.5-0.4-1-1-1h-8.4c-0.5,0-1,0.4-1,1
		C-303.1,462.1-302.7,462.5-302.2,462.5L-302.2,462.5z"/>
	<path id="XMLID_3976_" class="st0" d="M-268.6,460.5h-21c-0.5,0-1,0.4-1,1c0,0.5,0.4,1,1,1h21c0.5,0,1-0.4,1-1
		C-267.6,461-268,460.5-268.6,460.5L-268.6,460.5z"/>
	<path id="XMLID_3973_" class="st0" d="M-302.2,466.7h25.2c0.5,0,1-0.4,1-1c0-0.5-0.4-1-1-1h-25.2c-0.5,0-1,0.4-1,1
		C-303.1,466.3-302.7,466.7-302.2,466.7L-302.2,466.7z"/>
	<path id="XMLID_3970_" class="st0" d="M-268.6,464.7h-4.2c-0.5,0-1,0.4-1,1c0,0.5,0.4,1,1,1h4.2c0.5,0,1-0.4,1-1
		C-267.6,465.2-268,464.7-268.6,464.7L-268.6,464.7z"/>
	<path id="XMLID_2371_" class="st0" d="M-302.2,449.9h13.6c0.5,0,1-0.4,1-1c0-0.5-0.4-1-1-1h-13.6c-0.5,0-1,0.4-1,1
		C-303.1,449.5-302.7,449.9-302.2,449.9L-302.2,449.9z"/>
	<path id="XMLID_2362_" class="st0" d="M-268.6,447.9h-15.7c-0.5,0-1,0.4-1,1c0,0.5,0.4,1,1,1h15.7c0.5,0,1-0.4,1-1
		C-267.6,448.4-268,447.9-268.6,447.9L-268.6,447.9z"/>
	<path id="XMLID_2336_" class="st0" d="M-302.2,454.1h22c0.5,0,1-0.4,1-1c0-0.5-0.4-1-1-1h-22c-0.5,0-1,0.4-1,1
		C-303.1,453.7-302.7,454.1-302.2,454.1L-302.2,454.1z"/>
	<path id="XMLID_2333_" class="st0" d="M-268.6,452.1h-7.3c-0.5,0-1,0.4-1,1c0,0.5,0.4,1,1,1h7.3c0.5,0,1-0.4,1-1
		C-267.6,452.6-268,452.1-268.6,452.1L-268.6,452.1z"/>
	<path id="XMLID_2327_" class="st0" d="M-250.7,436.4c-1.7,0-3.1,1.4-3.1,3.1v36.7c0,0.1,0,0.2,0,0.3l2,6.1v0.9c0,0.5,0.4,1,1,1
		c0.5,0,1-0.4,1-1v-0.9l2-6.1c0-0.1,0.1-0.2,0.1-0.3v-36.7C-247.6,437.8-249,436.4-250.7,436.4L-250.7,436.4z M-250.7,479.4
		l-1.1-3.3h2.2L-250.7,479.4z M-249.6,474.2h-2.2v-31.6h2.2V474.2z M-249.6,440.6h-2.2v-1.1c0-0.6,0.5-1.1,1.1-1.1s1.1,0.5,1.1,1.1
		L-249.6,440.6L-249.6,440.6z"/>
</g>
</svg>
