<?xml version="1.0" encoding="utf-8"?>
<!-- Generator: Adobe Illustrator 19.0.0, SVG Export Plug-In . SVG Version: 6.00 Build 0)  -->
<svg version="1.1" id="Layer_1" xmlns="http://www.w3.org/2000/svg" xmlns:xlink="http://www.w3.org/1999/xlink" x="0px" y="0px"
	 viewBox="-379 351 200 200" style="enable-background:new -379 351 200 200;" xml:space="preserve">
<style type="text/css">
	.st0{fill:#5B5B5B;}
</style>
<g>
	<path class="st0" d="M-252.8,449.4c5.3,0,9.6-4.3,9.6-9.6c0-5.3-4.3-9.6-9.6-9.6s-9.6,4.3-9.6,9.6
		C-262.4,445.1-258.1,449.4-252.8,449.4z M-252.8,434c3.2,0,5.8,2.6,5.8,5.8c0,3.2-2.6,5.8-5.8,5.8c-3.2,0-5.8-2.6-5.8-5.8
		C-258.6,436.6-256,434-252.8,434z"/>
	<path class="st0" d="M-252.8,453.2c-2.6,0-5.2,0.6-7.5,1.9c-0.9,0.5-1.3,1.7-0.8,2.6c0.5,0.9,1.7,1.3,2.6,0.8
		c1.7-0.9,3.7-1.4,5.7-1.4c6,0,10.9,4.4,11.9,10.1h-11.9c-1.1,0-1.9,0.9-1.9,1.9s0.9,1.9,1.9,1.9h13.9c1.1,0,1.9-0.9,1.9-1.9
		C-237,460.3-244.1,453.2-252.8,453.2L-252.8,453.2z"/>
	<path class="st0" d="M-305,467.1h-12c0.9-5.7,5.9-10.1,11.9-10.1c2,0,3.9,0.5,5.7,1.4c0.9,0.5,2.1,0.2,2.6-0.8
		c0.5-0.9,0.1-2.1-0.8-2.6c-2.3-1.2-4.9-1.9-7.5-1.9c-8.7,0-15.9,7.1-15.9,15.9c0,1.1,0.9,1.9,1.9,1.9h14.1c1.1,0,1.9-0.9,1.9-1.9
		S-303.9,467.1-305,467.1z"/>
	<path class="st0" d="M-305.2,449.4c5.3,0,9.6-4.3,9.6-9.6c0-5.3-4.3-9.6-9.6-9.6c-5.3,0-9.6,4.3-9.6,9.6
		C-314.8,445.1-310.5,449.4-305.2,449.4z M-305.2,434c3.2,0,5.8,2.6,5.8,5.8c0,3.2-2.6,5.8-5.8,5.8c-3.2,0-5.8-2.6-5.8-5.8
		C-310.9,436.6-308.4,434-305.2,434z"/>
	<path class="st0" d="M-279,450.1c6.8,0,12.4-5.5,12.4-12.4s-5.5-12.4-12.4-12.4s-12.4,5.5-12.4,12.4S-285.8,450.1-279,450.1z
		 M-279,429.2c4.7,0,8.5,3.8,8.5,8.5c0,4.7-3.8,8.5-8.5,8.5s-8.5-3.8-8.5-8.5C-287.5,433-283.7,429.2-279,429.2z"/>
	<path class="st0" d="M-279,453.9c-11.5,0-20.9,9.4-20.9,20.9c0,1.1,0.9,1.9,1.9,1.9h37.9c1.1,0,1.9-0.9,1.9-1.9
		C-258.1,463.3-267.5,453.9-279,453.9z M-295.9,472.8c1-8.5,8.2-15.1,16.9-15.1s16,6.6,16.9,15.1H-295.9L-295.9,472.8z"/>
</g>
</svg>
