<?xml version="1.0" encoding="utf-8"?>
<!-- Generator: Adobe Illustrator 19.0.0, SVG Export Plug-In . SVG Version: 6.00 Build 0)  -->
<svg version="1.1" id="Layer_1" xmlns="http://www.w3.org/2000/svg" xmlns:xlink="http://www.w3.org/1999/xlink" x="0px" y="0px"
	 viewBox="-379 351 200 200" style="enable-background:new -379 351 200 200;" xml:space="preserve">
<style type="text/css">
	.st0{fill:#5B5B5B;}
</style>
<g>
	<path class="st0" d="M-279,450.1c6.8,0,12.4-5.5,12.4-12.4s-5.5-12.4-12.4-12.4s-12.4,5.5-12.4,12.4S-285.8,450.1-279,450.1z
		 M-279,429.2c4.7,0,8.5,3.8,8.5,8.5c0,4.7-3.8,8.5-8.5,8.5s-8.5-3.8-8.5-8.5C-287.5,433-283.7,429.2-279,429.2z"/>
	<path class="st0" d="M-279,453.9c-11.5,0-20.9,9.4-20.9,20.9c0,1.1,0.9,1.9,1.9,1.9h37.9c1.1,0,1.9-0.9,1.9-1.9
		C-258.1,463.3-267.5,453.9-279,453.9z M-295.9,472.8c1-8.5,8.2-15.1,16.9-15.1s16,6.6,16.9,15.1H-295.9L-295.9,472.8z"/>
</g>
</svg>
