<?xml version="1.0" encoding="utf-8"?>
<!-- Generator: Adobe Illustrator 19.0.0, SVG Export Plug-In . SVG Version: 6.00 Build 0)  -->
<svg version="1.1" id="Layer_1" xmlns="http://www.w3.org/2000/svg" xmlns:xlink="http://www.w3.org/1999/xlink" x="0px" y="0px"
	 viewBox="-379 351 200 200" style="enable-background:new -379 351 200 200;" xml:space="preserve">
<style type="text/css">
	.st0{fill:#47BFAB;}
</style>
<path id="XMLID_87_" class="st0" d="M-261.1,440c-4.3,0-8.2-2.2-11.7-4.2c-0.3-0.1-0.5-0.3-0.7-0.4c-6.5-3.7-10.9-5.5-16-0.2
	c-0.7,0.7-1.8,0.7-2.5,0s-0.7-1.8,0-2.5c7.4-7.6,14.6-3.6,20.3-0.3c0.1,0,0.1,0.1,0.1,0.1c0.1,0.1,0.2,0.1,0.3,0.2
	c0.1,0,0.1,0,0.2,0.1c7.1,4,11.8,6,17.8,0c0.7-0.7,1.8-0.7,2.5,0s0.7,1.8,0,2.5C-254.4,438.7-257.9,440-261.1,440L-261.1,440z
	 M-266,424.8c1,0,1.7-0.8,1.7-1.7c0-2.1,1.7-3.9,3.9-3.9c2,0,3.8,1.6,3.9,3.6c0.1,0.9,0.8,1.6,1.7,1.6c4.9,0.2,8.8,4.2,8.8,9.1
	s-3.9,8.9-8.8,9.1c-0.9,0-1.6,0.7-1.7,1.6c-0.1,2-1.8,3.6-3.9,3.6s-3.9-1.7-3.9-3.9c0-1-0.8-1.7-1.7-1.7c-1,0-1.7,0.8-1.7,1.7
	c0,4.1,3.3,7.4,7.4,7.4c3.4,0,6.2-2.3,7.1-5.4c2.7-0.4,5.2-1.7,7.2-3.7c2.3-2.4,3.5-5.5,3.5-8.8s-1.3-6.4-3.5-8.8
	c-1.9-2-4.4-3.3-7.2-3.7c-0.9-3.1-3.7-5.4-7.1-5.4c-4.1,0-7.4,3.3-7.4,7.4C-267.7,424-267,424.8-266,424.8z M-299.4,435.5
	c0.2,0.1,0.4,0.1,0.6,0.1c0.7,0,1.4-0.4,1.6-1.2c2.6-7.4,9.5-9.9,14.5-9.7c3.9,0.1,7.4,1.7,13,4.8l0,0c1.9,1.1,4.1,2.4,6.4,2.9
	c2.9,0.6,5.4-0.1,7.5-2.2c0.7-0.7,0.7-1.8,0-2.5c-0.7-0.7-1.8-0.7-2.5,0c-2.5,2.5-5.5,1.1-9.7-1.3l0,0l0,0
	c-5.2-2.9-9.5-5.2-14.6-5.3c-6.2-0.2-14.6,2.9-17.9,12.1C-300.8,434.2-300.4,435.2-299.4,435.5L-299.4,435.5z M-258.6,470.9
	c1,0,1.7-0.8,1.7-1.7v-3.4c0-1-0.8-1.7-1.7-1.7c-0.9,0-1.7,0.8-1.7,1.7v3.4C-260.4,470.1-259.6,470.9-258.6,470.9z M-242.6,484.7
	c0,1-0.8,1.7-1.7,1.7H-274c0,0,0,0-0.1,0h-14.2c-1,0-1.7-0.8-1.7-1.7V479c0-1,0.8-1.7,1.7-1.7c1,0,1.7,0.8,1.7,1.7v3.9h10.5
	l-5.2-39.7h-21.6l-5.1,39.7h10.5V479c0-1,0.8-1.7,1.7-1.7c1,0,1.7,0.8,1.7,1.7v5.7c0,0.5-0.2,0.9-0.5,1.2c-0.3,0.3-0.8,0.5-1.2,0.5
	H-310l0,0h-3.8c-1,0-1.7-0.8-1.7-1.7c0-1,0.8-1.7,1.7-1.7h2.3l5.4-41.6c0.1-0.9,0.8-1.5,1.7-1.5h24.7c0.9,0,1.6,0.6,1.7,1.5
	l2.2,17.3h27.6c1,0,1.7,0.8,1.7,1.7v22.5h2.2C-243.3,482.9-242.6,483.7-242.6,484.7L-242.6,484.7z M-249.9,462.1h-25.4l2.7,20.9
	h22.6L-249.9,462.1L-249.9,462.1z M-266.6,470.9c1,0,1.7-0.8,1.7-1.7v-3.4c0-1-0.8-1.7-1.7-1.7c-0.9,0-1.7,0.8-1.7,1.7v3.4
	C-268.4,470.1-267.6,470.9-266.6,470.9z"/>
</svg>
