<?xml version="1.0" encoding="utf-8"?>
<!-- Generator: Adobe Illustrator 19.0.0, SVG Export Plug-In . SVG Version: 6.00 Build 0)  -->
<svg version="1.1" id="Layer_1" xmlns="http://www.w3.org/2000/svg" xmlns:xlink="http://www.w3.org/1999/xlink" x="0px" y="0px"
	 viewBox="-379 351 200 200" style="enable-background:new -379 351 200 200;" xml:space="preserve">
<style type="text/css">
	.st0{fill:#22B273;}
</style>
<g id="XMLID_2355_">
	<polygon id="XMLID_2356_" class="st0" points="-212.2,452.4 -260.5,452.4 -241.4,433.1 -223.8,433.6 -223.8,431.8 -239.7,431.6 
		-222.9,414.6 -225.4,412.1 -257.9,445.1 -256.2,428.6 -258,428.4 -259.5,447.1 -271.5,459.6 -271.5,433.9 -250.7,411.5 
		-233.7,405.5 -234.4,403.9 -248.2,408.8 -233.6,393.4 -236.9,389.8 -271.5,426.5 -271.5,400.1 -261.5,390 -262.5,388.6 
		-271.5,397.6 -271.5,384 -282.2,384 -282.2,427.6 -295,413 -296.8,414.5 -282.2,431.2 -282.2,474.9 -316.4,433.6 -310.5,417.2 
		-312.1,416.6 -317.6,432 -332.5,414 -336.4,417.2 -314.6,443.6 -325.6,445.5 -338.1,437.6 -339,438.8 -327.9,445.9 -345.8,449 
		-345.2,451.9 -312.5,446.1 -299.5,462 -312.6,470.1 -311.8,471.6 -298.4,463.2 -282.2,482.9 -282.2,482.8 -282.2,518 -271.5,518 
		-271.5,464.8 -262.6,455.1 -235.7,455.1 -221.2,465.5 -220.4,463.6 -232.5,455.1 -212.2,455.1 	"/>
</g>
</svg>
