<?xml version="1.0" encoding="utf-8"?>
<!-- Generator: Adobe Illustrator 19.0.0, SVG Export Plug-In . SVG Version: 6.00 Build 0)  -->
<svg version="1.1" id="Layer_1" xmlns="http://www.w3.org/2000/svg" xmlns:xlink="http://www.w3.org/1999/xlink" x="0px" y="0px"
	 viewBox="-379 351 200 200" style="enable-background:new -379 351 200 200;" xml:space="preserve">
<style type="text/css">
	.st0{fill:#CACACC;}
</style>
<g id="XMLID_431_">
	<path id="XMLID_785_" class="st0" d="M-251.3,423.3c-7.4-7.4-17.3-11.5-27.7-11.5s-20.3,4.1-27.7,11.5
		c-7.4,7.4-11.5,17.3-11.5,27.7c0,10.4,4.1,20.3,11.5,27.7c7.4,7.4,17.3,11.5,27.7,11.5s20.3-4.1,27.7-11.5
		c7.4-7.4,11.5-17.3,11.5-27.7S-243.9,430.7-251.3,423.3L-251.3,423.3z M-252.9,477.1c-7,7-16.2,10.8-26.1,10.8s-19.1-3.9-26.1-10.8
		c-7-7-10.8-16.2-10.8-26.1s3.9-19.1,10.8-26.1c7-7,16.2-10.8,26.1-10.8s19.1,3.8,26.1,10.8s10.8,16.2,10.8,26.1
		S-246,470.1-252.9,477.1L-252.9,477.1z"/>
	<path id="XMLID_780_" class="st0" d="M-254.9,426.9c-6.5-6.5-15-10-24.2-10s-17.7,3.6-24.2,10c-6.5,6.5-10,15-10,24.2
		s3.6,17.7,10,24.2c6.5,6.5,15,10,24.2,10s17.7-3.6,24.2-10c6.5-6.5,10-15,10-24.2S-248.4,433.3-254.9,426.9L-254.9,426.9z
		 M-277.8,482.8v-2.6c0-0.7-0.5-1.2-1.2-1.2s-1.2,0.5-1.2,1.2v2.6c-16.6-0.6-30-14-30.6-30.6h2.6c0.7,0,1.2-0.5,1.2-1.2
		s-0.5-1.2-1.2-1.2h-2.6c0.6-16.6,14-30,30.6-30.6v2.6c0,0.7,0.5,1.2,1.2,1.2s1.2-0.5,1.2-1.2v-2.6c16.6,0.6,30,14,30.6,30.6h-2.6
		c-0.7,0-1.2,0.5-1.2,1.2s0.5,1.2,1.2,1.2h2.6C-247.9,468.8-261.2,482.2-277.8,482.8L-277.8,482.8z"/>
	<path id="XMLID_774_" class="st0" d="M-257.4,449.8h-12.3l8.2-14.7c0.3-0.5,0.2-1-0.2-1.4c-0.4-0.4-1-0.5-1.4-0.2l-14.7,8.2v-12.3
		c0-0.7-0.5-1.2-1.2-1.2s-1.2,0.5-1.2,1.2V443l-2.3,1.3c-0.2,0.1-0.3,0.2-0.5,0.3l0,0l-0.1,0.1c-0.1,0.1-0.2,0.1-0.3,0.2l-4.9-4.9
		c-0.5-0.5-1.2-0.5-1.7,0s-0.5,1.2,0,1.7l4.9,4.9c-0.2,0.3-0.4,0.6-0.6,0.9l0,0l-1.3,2.2h-13.6c-0.7,0-1.2,0.5-1.2,1.2
		s0.5,1.2,1.2,1.2h12.3l-8.2,14.7c-0.3,0.5-0.2,1,0.2,1.4c0.2,0.2,0.5,0.3,0.8,0.3c0.2,0,0.4,0,0.6-0.2l14.7-8.2v12.3
		c0,0.7,0.5,1.2,1.2,1.2s1.2-0.5,1.2-1.2v-13.6l2.4-1.4c0,0,0,0,0.1,0c0.3-0.1,0.5-0.3,0.7-0.5l4.9,4.9c0.2,0.2,0.5,0.3,0.8,0.3
		s0.6-0.1,0.8-0.3c0.5-0.5,0.5-1.2,0-1.7l-4.9-4.9c0.2-0.3,0.4-0.6,0.6-1l0,0l1.2-2.2h13.6c0.7,0,1.2-0.5,1.2-1.2
		C-256.3,450.4-256.8,449.8-257.4,449.8L-257.4,449.8z M-281.7,446.6l0.4-0.2c0.7-0.4,1.5-0.5,2.3-0.5c2.8,0,5.2,2.3,5.2,5.2
		c0,2.8-2.3,5.2-5.2,5.2s-5.2-2.3-5.2-5.2C-284.2,449.2-283.2,447.5-281.7,446.6L-281.7,446.6z M-271.8,448.7
		c-0.7-2.3-2.6-4.2-4.9-4.9l11.1-6.2L-271.8,448.7z M-286.2,453.3c0.7,2.3,2.6,4.2,4.9,4.9l-11.1,6.2L-286.2,453.3z"/>
	<path id="XMLID_770_" class="st0" d="M-279,453.5c1.4,0,2.5-1.1,2.5-2.5s-1.1-2.5-2.5-2.5s-2.5,1.1-2.5,2.5S-280.4,453.5-279,453.5
		L-279,453.5z M-279,450.9C-279,450.9-278.9,451-279,450.9c0.1,0.1,0,0.2,0,0.2S-279.1,451.1-279,450.9
		C-279.1,451-279.1,450.9-279,450.9L-279,450.9z"/>
</g>
</svg>
